<svg width="1920" height="708" viewBox="0 0 1920 708" fill="none" xmlns="http://www.w3.org/2000/svg" xmlns:xlink="http://www.w3.org/1999/xlink">
<path d="M2251.61 526.233L2230.97 522.179L2215.91 509.173L2194.09 502.888L2172.27 496.532L2155.42 485.446L2137.95 474.887L2119.31 465.347L2093.34 463.592L2074.58 454.264L2052.83 448.485L2033.33 439.483L2010.78 440.027L1992.18 429.702L1970.51 427.856L1948.84 426.768L1927.21 426.604L1905.54 430.336L1884.32 426.172L1863.24 424.579L1841.04 426.823L1819.66 417.605L1800.09 407.173L1780.25 396.359L1753.97 393.974L1736.05 401.255L1716.71 406.653L1700.15 415.58L1676.23 418.497L1660.26 428.133L1645.44 440.466L1619.35 442.875L1606.89 457.056L1583.12 461.827L1570.56 475.61L1548.79 482.257L1536.19 495.659L1512.47 501.238L1497.62 513.01L1479.62 522.753L1465.8 535.053L1453.25 547.913L1442.29 560.409L1430.48 572.597L1407.8 577.997L1397.68 591.906L1379.47 600.564L1355.96 601.811L1335.45 608.013L1314.78 599.956L1290.53 605.716L1273.63 594.029L1248.81 596.039L1234.82 581.841L1211.65 580.663L1189.97 577.636L1171.36 569.766L1152.12 561.561L1128.77 563.753L1108.7 555.023L1085.36 561.816L1063.75 559.751L1042.51 553.34L1020.69 552.126L998.401 553.845L976.514 552.307L954.936 549.516L933.311 542.361L910.444 539.299L887.435 536.131L864.139 533.667L840.27 533.687L816.95 533.396L793.941 526.188L770.955 531.945L747.754 527.998L724.84 531.874L701.687 532.618L678.654 530.517L655.978 527.617L631.584 528.795L612.251 518.887L592.415 511.408L570.17 506.824L547.518 502.569L532.624 488.642L507.8 487.862L485.712 484.258L463.648 480.635L442.569 473.59L420.371 477.229L398.65 480.149L377.032 482.212L355.369 484.223L332.86 475.891L311.378 483.552L289.226 485.272L267.438 481.217L243.701 481.694L222.099 474.176L200.617 468.214L179.088 462.926L153.787 464.753L133.655 456.529L111.935 451.258L89.2594 447.8L74 443.5" stroke="#1E1E1E" stroke-width="2"/>
<path d="M1920.5 133L1889 143L1842.6 142L1829.66 148.201L1815.89 149.668L1801.47 147.798L1789.96 159.795L1776.12 160.449L1765.57 170.509L1751.03 170.471L1739.43 177.724L1727.07 183.143L1715.49 191.49L1700.86 188.404L1688.95 198.603L1674.87 193.15L1661.22 194.968L1647.63 197.508L1634.01 200.05L1621 204.427L1609.73 214.397L1595.65 213.586L1582.64 217.256L1569.99 218.315L1557.96 224.738L1544.52 219.92L1533.3 228.356L1522.13 234.355L1508.93 235.097L1498.22 242.421L1488 250.573L1473.8 251.1L1463.89 261.743L1451.96 268.96L1436.92 265.859L1426.16 277.663L1413.67 282.922L1400.11 284.334L1387.13 288.129L1375.17 294.692L1361.8 299.742L1355.89 315.939L1345.84 326.528L1334.93 336.763L1324.83 348.462L1310.01 351.562L1296.55 358.586L1282.23 350.63L1267.64 349.27L1252.41 351.052L1238.26 347.999L1224.49 350.081L1210.72 342.969L1196.87 349.251L1183.12 346.675L1169.45 344.982L1155.6 344.223L1142.07 341.099L1130.37 331.814L1115.41 332.751L1103.76 324.403L1091.25 318.121L1079.82 309.864L1066.19 305.416L1057.29 292.746L1044.42 286.624L1031.58 280.446L1021.65 269.628L1011.34 259.36L1000.36 250.042L985.035 248.329L973.983 239.242L961.142 233.613L949.661 224.841L936.366 225.37L925.41 215.332L912.617 213.514L899.847 212.455L887.101 212.295L874.331 215.947L861.8 211.873L849.388 210.318L836.284 212.508L823.705 203.523L812.152 193.36L800.457 182.842L784.966 180.495L774.392 187.588L763.006 192.847L753.244 201.565L739.137 204.389L729.733 213.776L720.973 225.795L705.602 228.142L698.25 241.961L684.239 246.6L676.84 260.047L664.022 266.506L656.599 279.564L642.588 285.016L633.852 296.465L623.254 305.96L615.091 317.942L607.668 330.469L601.223 342.647L594.253 354.522L580.887 359.8L574.92 373.352L564.179 381.788L550.335 382.981L538.257 389.017L526.036 381.18L511.763 386.792L501.8 375.408L487.156 377.369L478.916 363.535L465.266 362.402L452.484 359.454L441.505 351.779L430.171 343.804L416.411 345.921L404.584 337.433L390.814 344.033L378.078 342.02L365.559 335.773L352.698 334.58L339.551 336.25L326.647 334.75L313.93 332.033L301.184 325.064L287.681 322.095L274.133 318.994L260.39 316.592L246.324 316.609L232.571 316.327L219.006 309.323L205.451 314.918L191.779 311.068L178.274 314.846L164.628 315.562L151.044 313.516L137.677 310.692L123.292 311.839L111.885 302.186L100.189 294.9L87.0801 290.433L73.7136 286.287L64.9299 272.716L50.3031 271.956L37.2826 268.445L24.2788 264.917L11.8479 258.07L-1.23706 261.597L-14.0332 264.44L-26.7791 266.451L-39.549 268.409L-52.8202 260.3L-65.4706 267.748L-78.5341 269.418L-91.3779 265.482L-105.372 265.924L-118.09 258.628L-130.74 252.822L-143.434 247.668L-158.347 249.452L-170.214 241.441L-183.023 236.306L-196.389 232.936L-209.161 227.641L-221.592 220.545L-236.63 224.729L-249.368 218.869L-261.363 210.082L-274.311 205.829L-289.449 208.634L-300.391 198.312L-314.518 197.868L-322.634 186.911L-331 178.275" stroke="#1E1E1E" stroke-width="2"/>
<path d="M2007.34 468.817L1999.92 468.46L1974.57 464.293L1948.86 464.107L1923.75 459.298L1898.83 453.555L1872.93 453.894L1847.61 450.524L1823.64 440.533L1797.25 442.512L1771.85 439.636L1747.45 431.927L1723.37 427.1L1698.38 423.63L1679.62 406.793L1657.99 396.664L1633.07 391.55L1612.83 378.814L1592.02 366.958L1569.32 358.052L1549.68 343.98L1520.29 339.983L1491.6 336.138L1463.77 328.143L1440.19 318.505L1422.26 302.027L1401.26 289.493L1380.4 276.454L1356.12 269.966L1330.87 269.289L1306.6 276.587L1282.51 281.212L1257.62 282.669L1232.87 285.462L1210.19 295.914L1185.99 301.28L1161.83 307.581L1136.39 312.829L1112.11 320.857L1088.2 329.884L1063.32 337.693L1036.26 337.643L1016.83 321.365L993.413 330.428L970.809 340.808L947.179 349.363L922.069 353.418L897.34 355.366L871.753 358.515L846.738 350.644L820.387 349.69L794.609 346.286L768.902 341.342L744.389 344.424L719.995 344.018L695.815 347.357L671.589 349.814L646.669 348.815L622.657 353.167L597.929 352.915L574.514 361.789L549.619 357.234L525.463 358.011L501.05 360.501L476.773 360.485L454.394 349.917L429.742 353.473L406.384 356.301L380.811 360.833L361.537 377.025L337.386 385.9L318.305 401.515L298.186 416.214L275.272 427.446L250.04 433.814L224.262 435.961L197.051 440.311L169.602 436.297L142.189 439.5L114.792 438.737L86.8773 438.431L63.1779 448.714L37.5689 450.948L11.8646 453.438L-10.6223 466.394L-35.9233 470.339L-48.5739 473.137" stroke="#1E1E1E" stroke-width="2"/>
<path d="M2230.97 522.179L2251.61 526.233L2093.34 539.299L1841.04 487.862L1645.44 577.636L1335.45 707.5L784.807 643.5L89.2594 591.906L75 444L89.2594 447.8L111.935 451.258L133.655 456.529L153.787 464.753L179.088 462.926L200.617 468.214L222.099 474.176L243.701 481.694L267.438 481.217L289.226 485.272L311.378 483.552L332.86 475.891L355.369 484.223L377.032 482.212L398.65 480.149L420.371 477.229L442.569 473.59L463.648 480.635L485.712 484.258L507.8 487.862L532.624 488.642L547.518 502.569L570.17 506.824L592.415 511.408L612.251 518.887L631.584 528.795L655.978 527.617L678.654 530.517L701.687 532.618L724.84 531.874L747.754 527.998L770.955 531.945L793.941 526.188L816.95 533.396L840.27 533.687L864.139 533.667L887.435 536.131L910.444 539.299L933.311 542.361L954.936 549.516L976.514 552.307L998.401 553.845L1020.69 552.126L1042.51 553.34L1063.75 559.751L1085.36 561.816L1108.7 555.023L1128.77 563.753L1152.12 561.561L1171.36 569.766L1189.97 577.636L1211.65 580.663L1234.82 581.841L1248.81 596.039L1273.63 594.029L1290.53 605.716L1314.78 599.956L1335.45 608.013L1355.96 601.811L1379.47 600.564L1397.68 591.906L1407.8 577.997L1430.48 572.597L1442.29 560.409L1453.25 547.913L1465.8 535.053L1479.62 522.753L1497.62 513.01L1512.47 501.238L1536.19 495.659L1548.79 482.257L1570.56 475.61L1583.12 461.827L1606.89 457.056L1619.35 442.875L1645.44 440.466L1660.26 428.133L1676.23 418.497L1700.15 415.58L1716.71 406.653L1736.05 401.255L1753.97 393.974L1780.25 396.359L1800.09 407.173L1819.66 417.605L1841.04 426.823L1863.24 424.579L1884.32 426.172L1905.54 430.336L1927.21 426.604L1948.84 426.768L1970.51 427.856L1992.18 429.702L2010.78 440.027L2033.33 439.483L2052.83 448.485L2074.58 454.264L2093.34 463.592L2119.31 465.347L2137.95 474.887L2155.42 485.446L2172.27 496.532L2194.09 502.888L2215.91 509.173L2230.97 522.179Z" fill="#0E0E0E"/>
</svg>
