<svg width="1852" height="207" viewBox="0 0 1852 207" fill="none" xmlns="http://www.w3.org/2000/svg">
<path d="M2056.34 201.528L2048.92 201.17L2023.57 197.004L1997.86 196.818L1972.75 192.009L1947.83 186.266L1921.93 186.605L1896.61 183.235L1872.64 173.244L1846.24 175.223L1820.85 172.347L1796.45 164.638L1772.37 159.811L1747.38 156.341L1728.62 139.504L1706.99 129.375L1682.07 124.261L1661.83 111.525L1641.02 99.6688L1618.32 90.7629L1598.68 76.691L1569.29 72.6936L1540.6 68.8489L1512.77 60.8542L1489.19 51.216L1471.26 34.7376L1450.26 22.204L1429.4 9.16483L1405.12 2.67743L1379.87 2L1355.6 9.2984L1331.51 13.923L1306.62 15.3803L1281.87 18.1732L1259.19 28.6246L1234.99 33.9911L1210.83 40.2924L1185.39 45.5395L1161.11 53.5677L1137.2 62.5952L1112.32 70.404L1085.26 70.3539L1065.83 54.0758L1042.41 63.139L1019.81 73.5189L996.179 82.0742L971.068 86.1288L946.34 88.0774L920.753 91.2256L895.738 83.3549L869.387 82.4009L843.609 78.9974L817.902 74.0532L793.389 77.1347L768.994 76.7292L744.815 80.0683L720.589 82.5249L695.669 81.5256L671.657 85.8784L646.929 85.6255L623.514 94.5004L598.618 89.9449L574.463 90.7224L550.05 93.2124L525.773 93.1958L503.394 82.6275L478.742 86.1836L455.384 89.0124L429.811 93.544L410.537 109.736L386.386 118.611L367.305 134.226L347.186 148.925L324.272 160.157L299.04 166.525L273.262 168.671L246.051 173.022L218.602 169.008L191.189 172.211L163.792 171.448L135.877 171.142L112.178 181.424L86.5689 183.659L60.8645 186.149L38.3776 199.105L13.0766 203.05L0.426025 205.848" stroke="#1E1E1E" stroke-width="2"/>
</svg>
